<svg width="80" height="80" viewBox="0 0 80 80" fill="none" xmlns="http://www.w3.org/2000/svg">
<path d="M17.3799 54.2813H18.8408C19.2393 54.2813 19.5205 54.3141 19.6814 54.3797C19.8439 54.4453 19.9799 54.5625 20.0908 54.7281C20.2018 54.8938 20.258 55.0828 20.258 55.2938C20.258 55.4875 20.2096 55.6625 20.1143 55.8188C20.0189 55.975 19.8955 56.0906 19.7424 56.1656C19.958 56.2359 20.1283 56.3547 20.2502 56.5219C20.3721 56.6906 20.433 56.8953 20.433 57.1359C20.433 57.4281 20.3549 57.6766 20.2002 57.8781C20.0439 58.0797 19.8611 58.2047 19.6486 58.2531C19.5018 58.2859 19.158 58.3031 18.6205 58.3031H17.3799V54.2797V54.2813ZM18.1143 54.9516V55.8813H18.6002C18.8908 55.8813 19.0705 55.8766 19.1393 55.8672C19.2643 55.8484 19.3627 55.8016 19.433 55.7234C19.5033 55.6453 19.5393 55.5406 19.5393 55.4063C19.5393 55.2875 19.5111 55.1906 19.4533 55.1172C19.3955 55.0438 19.3252 54.9969 19.2439 54.9781C19.1627 54.9594 18.9268 54.9516 18.5393 54.9516H18.1143ZM18.1143 56.5516V57.625H18.7986C19.0986 57.625 19.2908 57.6109 19.3752 57.5828C19.4596 57.5547 19.5314 57.4984 19.5893 57.4156C19.6471 57.3328 19.6752 57.2266 19.6752 57.1C19.6752 56.9734 19.6439 56.8609 19.583 56.775C19.5221 56.6891 19.4393 56.6313 19.3361 56.6C19.233 56.5688 19.0252 56.5516 18.708 56.5516H18.1127H18.1143Z" fill="black"/>
<path d="M21.0332 58.3031V54.2797H21.7676V58.3031H21.0332Z" fill="black"/>
<path d="M22.4673 54.2812H23.8095C24.1485 54.2812 24.4048 54.3156 24.5782 54.3844C24.7501 54.4531 24.9095 54.5688 25.0548 54.7313C25.2001 54.8938 25.3142 55.1047 25.397 55.3656C25.4798 55.625 25.522 55.9484 25.522 56.3344C25.522 56.6813 25.4782 56.9844 25.3923 57.2406C25.3048 57.4984 25.1954 57.7016 25.0626 57.8516C24.9298 58.0016 24.7688 58.1141 24.5798 58.1906C24.3907 58.2672 24.1485 58.3047 23.8517 58.3047H22.4704V54.2812H22.4673ZM23.2017 54.9625V57.625H23.7532C23.9892 57.625 24.161 57.6047 24.2673 57.5641C24.3735 57.5234 24.461 57.4625 24.5282 57.3812C24.5954 57.3 24.6517 57.1719 24.697 56.9969C24.7407 56.8219 24.7642 56.5906 24.7642 56.3031C24.7642 56.0156 24.7407 55.7703 24.6954 55.5984C24.6501 55.4266 24.5798 55.2922 24.4829 55.1922C24.3876 55.0938 24.2704 55.0281 24.1329 54.9969C24.0298 54.9734 23.8313 54.9609 23.536 54.9609H23.2017V54.9625Z" fill="black"/>
<path d="M26.125 58.3031V54.2797H26.8594V58.3031H26.125Z" fill="black"/>
<path d="M27.3784 56.9922L28.0972 56.9156C28.1784 57.4297 28.4425 57.6875 28.8925 57.6875C29.1144 57.6875 29.2894 57.6344 29.4175 57.5297C29.544 57.425 29.6081 57.2938 29.6081 57.1391C29.6081 57.0485 29.5862 56.9703 29.5409 56.9063C29.4972 56.8422 29.4284 56.7891 29.3378 56.7485C29.2472 56.7078 29.0269 56.6375 28.6769 56.5422C28.3628 56.4563 28.1347 56.3625 27.9878 56.2625C27.8409 56.1625 27.7269 56.0297 27.6409 55.8656C27.555 55.7016 27.5128 55.5266 27.5128 55.3375C27.5128 55.1188 27.5675 54.9203 27.6784 54.7453C27.7894 54.5703 27.9409 54.4375 28.1347 54.3485C28.3284 54.2594 28.569 54.2141 28.8534 54.2141C29.2815 54.2141 29.6159 54.3188 29.8565 54.5297C30.0972 54.7406 30.2237 55.0406 30.2394 55.4328L29.5019 55.4688C29.469 55.2531 29.4003 55.1016 29.2925 55.0156C29.1847 54.9297 29.0331 54.886 28.8347 54.886C28.6362 54.886 28.4831 54.9235 28.3769 54.9985C28.269 55.0735 28.2159 55.1656 28.2159 55.2781C28.2159 55.3906 28.2644 55.4797 28.3612 55.5547C28.4581 55.6297 28.6815 55.711 29.0315 55.8016C29.4019 55.8985 29.669 56 29.8331 56.1078C29.9972 56.2156 30.1237 56.3531 30.2112 56.5219C30.2987 56.6906 30.3409 56.8969 30.3409 57.1375C30.3409 57.4875 30.2222 57.7797 29.9847 58.0188C29.7472 58.2563 29.3753 58.375 28.8706 58.375C27.9769 58.375 27.48 57.9141 27.3784 56.9953V56.9922Z" fill="black"/>
<path d="M30.9629 58.3031V54.2797H31.6973V55.8625H33.1441V54.2797H33.8785V58.3031H33.1441V56.5438H31.6973V58.3031H30.9629Z" fill="black"/>
<path d="M37.9251 58.3031H37.1267L36.8079 57.3922H35.3485L35.047 58.3031H34.2642L35.6845 54.2797H36.4642L37.9251 58.3031ZM36.5704 56.7109L36.0673 55.2188L35.5735 56.7109H36.5704Z" fill="black"/>
<path d="M39.5518 58.3031V54.2797H40.2674L41.7596 56.9656V54.2797H42.4455V58.3031H41.7049L40.2377 55.6797V58.3031H39.5518Z" fill="black"/>
<path d="M43.1973 58.3031V54.2797H43.9316V58.3031H43.1973Z" fill="black"/>
<path d="M44.6422 58.3031V54.2797H45.3766V56.0703L46.8672 54.2797H47.8594L46.4844 55.8484L47.9312 58.3031H46.9781L45.9719 56.4125L45.375 57.0875V58.3031H44.6406H44.6422Z" fill="black"/>
<path d="M48.3126 58.3031V54.2797H51.0173V54.9609H49.0454V55.8531H50.8767V56.5313H49.0454V57.6234H51.0829V58.3047H48.311L48.3126 58.3031Z" fill="black"/>
<path d="M52.5281 58.3031V54.9609H51.4453V54.2797H54.3422V54.9609H53.2625V58.3031H52.5281Z" fill="black"/>
<path d="M57.7347 58.3031H56.9362L56.6175 57.3922H55.1581L54.8565 58.3031H54.0737L55.494 54.2797H56.2737L57.7347 58.3031ZM56.38 56.7109L55.8769 55.2188L55.3831 56.7109H56.38Z" fill="black"/>
<path d="M58.1284 58.3031V54.2797H58.844L60.3362 56.9656V54.2797H61.0222V58.3031H60.2815L58.8144 55.6797V58.3031H58.1284Z" fill="black"/>
<path d="M40.6252 22.8359L41.4518 22.5V20.4781L40.6252 20.814V16.7859H38.6158V21.6312L24.5768 27.3437V21.139H22.5674V28.1609L18.8174 29.6859V31.7078L22.5674 30.1828V44.9437L18.8174 46.4687V48.4906L22.5674 46.9656V50.1109H24.5768V46.1484L38.6158 40.4359V50.1109H40.6252V39.6187L41.4518 39.2828V37.2609L40.6252 37.5969V22.8359ZM38.6158 38.414L24.5768 44.1265V29.3656L38.6158 23.6531V38.414Z" fill="#FDC86C"/>
<path d="M40.0002 1.09061C18.5111 1.09061 1.09082 18.5109 1.09082 40C1.09082 61.489 18.5111 78.9094 40.0002 78.9094C61.4893 78.9094 78.9096 61.489 78.9096 40C78.9096 18.5109 61.4893 1.09061 40.0002 1.09061ZM40.0002 77.0312C19.5486 77.0312 2.96895 60.4515 2.96895 40C2.96895 19.5484 19.5486 2.96873 40.0002 2.96873C60.4518 2.96873 77.0314 19.5484 77.0314 40C77.0314 60.4515 60.4518 77.0312 40.0002 77.0312Z" fill="#1D1B1C"/>
<path d="M40 5.78125C21.1016 5.78125 5.78125 21.1016 5.78125 40C5.78125 58.8984 21.1016 74.2188 40 74.2188C58.8984 74.2188 74.2188 58.8984 74.2188 40C74.2188 21.1016 58.8984 5.78125 40 5.78125ZM40 71.7188C22.4828 71.7188 8.28125 57.5172 8.28125 40C8.28125 22.4828 22.4828 8.28125 40 8.28125C57.5172 8.28125 71.7188 22.4828 71.7188 40C71.7188 57.5172 57.5172 71.7188 40 71.7188Z" fill="#EF1921"/>
<path d="M38.6157 29.9234V31.9453L24.5767 37.6578V35.6359L38.6157 29.9234Z" fill="#303297"/>
<path d="M60.111 20.7359L40.0001 11.6297L19.8892 20.7359L40.0001 9.17343L60.111 20.7359Z" fill="#EF1921"/>
<path d="M56.5845 21.139H54.5767V50.1109H56.5845V21.139Z" fill="#FDC86C"/>
<path d="M54.152 41.0812H52.4488L41.8535 22.7672L43.1176 22.0094L54.152 41.0812Z" fill="#FDC86C"/>
<path d="M41.4516 28.7703V30.7922L40.625 31.1281V29.1062L41.4516 28.7703Z" fill="#303297"/>
<path d="M22.5674 36.4531V38.475L18.8174 40V37.9781L22.5674 36.4531Z" fill="#303297"/>
<path d="M50.3798 24.9781C51.4403 24.9781 52.3001 24.1184 52.3001 23.0578C52.3001 21.9972 51.4403 21.1375 50.3798 21.1375C49.3192 21.1375 48.4595 21.9972 48.4595 23.0578C48.4595 24.1184 49.3192 24.9781 50.3798 24.9781Z" fill="#EF1921"/>
<path d="M61.6754 51.4953H17.0098V52.6344H61.6754V51.4953Z" fill="#149753"/>
<path d="M62.1094 60.0672H17.5781V61.2062H62.1094V60.0672Z" fill="#F7EB65"/>
</svg>
